<?xml version="1.0" encoding="utf-8"?>
<!-- Generator: Adobe Illustrator 16.0.0, SVG Export Plug-In . SVG Version: 6.00 Build 0)  -->
<!DOCTYPE svg PUBLIC "-//W3C//DTD SVG 1.1//EN" "http://www.w3.org/Graphics/SVG/1.1/DTD/svg11.dtd">
<svg version="1.1" id="Layer_1" xmlns="http://www.w3.org/2000/svg" xmlns:xlink="http://www.w3.org/1999/xlink" x="0px" y="0px"
	 width="200px" height="87.549px" viewBox="0 0 200 87.549" enable-background="new 0 0 200 87.549" xml:space="preserve">
<g>
	<defs>
		<rect id="SVGID_1_" width="200" height="87.549"/>
	</defs>
	<clipPath id="SVGID_2_">
		<use xlink:href="#SVGID_1_"  overflow="visible"/>
	</clipPath>
	<path clip-path="url(#SVGID_2_)" fill="#A3CD3A" d="M108.641,96.997c0-11.062,0-38.214,0-40.917c0-2.704-0.981-8.388-3.44-10.462
		c-2.458-2.074-6.637-10.185-7.62-11.905c-0.983-1.721,1.613-4.425,3.257,0c1.659,4.424,6.237,10.43,4.271-2.405
		c-0.738-12.834-1.536-17.513,0.337-17.513c1.967,0,2.459,10.331,2.459,16.23c0,3.933,3.596,6.274,2.396-4.916
		c-0.307-3.379-1.659-11.314,0.8-11.314c1.229,0,1.137,2.381,1.628,8.418c0.108,5.776-0.29,10.792,0.953,10.792
		c1.358,0,1.153-6.037,0.97-11.33c-0.124-3.848-0.848-7.27,0.63-7.412c2.22-0.214,1.996,9.371,1.996,15.271
		c0,0-0.186,5.653,1.536,5.407c1.721-0.245,0.756-5.653,0.511-10.577c-0.153-3.068-0.092-6.089,0.661-6.089
		c0.766,0,0.764,0.259,1.04,1.918c0.737,4.424,3.309,19.189-2.797,32.199c0.245,13.519,0.983,41.901,0.737,44.604
		C114.54,96.997,108.641,96.997,108.641,96.997z"/>
	<path clip-path="url(#SVGID_2_)" fill="#A09F9F" d="M23.104,130.808c0-11.075,0-28.772,0-31.477s-0.983-8.389-3.44-10.446
		c-2.458-2.089-6.637-10.2-7.62-11.914c-0.983-1.719,1.612-4.424,3.257,0c1.658,4.417,6.083,10.439,4.117-2.402
		c-0.737-12.837-2.342-17.514-0.468-17.514c1.967,0,2.142,1.771,3.418,16.23c-0.133,1.537,0.637,3.093,1.344,3.03
		c0.763-0.068,1.454-2.027,0.852-7.946c-0.307-3.381-2.238-11.314,0.22-11.314c1.229,0,1.916,2.381,2.407,8.419
		c0.108,5.775-0.185,10.66,1.352,10.791c2.719,0.223-1.306-18.335,2.197-18.741c1.121-0.131,1.398,9.37,1.398,15.27
		c0,0-0.185,5.646,1.536,5.399c1.72-0.245,0.553-5.646,0.307-10.568c-0.153-3.068-0.947-6.09,0.914-6.09
		c2.105,0,4.678,23.295-2.205,34.109c0.247,13.52,0.983,32.445,0.738,35.164C29.004,130.808,23.104,130.808,23.104,130.808z"/>
	<path clip-path="url(#SVGID_2_)" fill="#A09F9F" d="M88.878,130.732c-0.407-11.062-1.06-28.743-1.16-31.447
		c-0.1-2.702,0.669-8.418,3.05-10.584c2.381-2.151,6.26-10.415,7.182-12.175c0.914-1.759-1.782-4.362-3.257,0.116
		c-1.497,4.485-5.699,10.646-4.202-2.251c0.262-12.851,0.884-16.131-0.982-16.062c-1.967,0.076-2.235,8.995-2.013,14.895
		c0.146,3.925-4.616,6.566-2.581-4.824c0.185-3.396,1.244-11.368-1.214-11.284c-1.229,0.047-1.044,2.427-1.312,8.473
		c0.1,5.776,0.576,10.654-0.952,10.838c-2.712,0.322,0.621-18.372-2.889-18.649c-1.129-0.084-1.052,9.417-0.838,15.316
		c0,0,0.393,5.637-1.336,5.453c-1.729-0.168-0.453-5.638-0.384-10.568c0.062-4.909-1.798-8.534-2.365-4.087
		c-0.577,4.454-2.896,21.507,4.378,32.06c0.253,13.521,0.215,32.461,0.561,35.165C82.979,130.947,88.878,130.732,88.878,130.732z"/>
	<path clip-path="url(#SVGID_2_)" fill="#A09F9F" d="M60.688,104.109c-0.284-7.757,0.522-20.141,0.453-22.045
		s1.996-5.138,4.04-6.675c2.043-1.528,2.811-7.791,2.749-9.34c-0.068-1.721-1.719-3.31-1.82,0.092
		c-0.107,3.902-2.015,6.143-2.887,6.114c-1.328-0.043-0.792-4.724,0.221-9.159c0.874-3.822,3.223-7.38,1.042-7.798
		c-1.231-0.236-2.177,3.701-2.905,7.568c-0.662,3.516-1.097,6.815-1.397,6.755c-2.016-0.404-1.057-4.479-0.571-8.472
		c0.525-4.319,2.596-8.979,1.251-8.979c-2.696,0-3.843,10.898-3.893,13.094c-0.053,2.337,0.019,4.163-0.66,4.104
		c-1.563-0.134-0.954-4.172-0.772-6.493c0.6-7.685,1.7-9.261-0.184-9.261c-0.968,0-2.044,7.39-1.898,11.521
		c0,0,0.587,3.394-0.981,3.826c-1.467-0.186-1.122-3.948-1.037-7.405c0.077-3.44,1.705-4.232,0.307-4.232
		c-2.051,0-2.896,5.069-2.343,10.784c0.307,3.11-0.172,6.406,1.003,9.163c0.139,9.494,1.197,25.271,1.474,27.16
		C55.65,104.292,60.688,104.109,60.688,104.109z"/>
	<path clip-path="url(#SVGID_2_)" fill="#A09F9F" d="M174.33,130.732c-0.4-11.062-1.06-28.743-1.168-31.447
		c-0.092-2.702,0.707-9.788,3.826-10.584c4.512-1.151,6.987-14.767,5.282-14.984c-2.604-0.333-1.752,10.742-5.437,7.597
		c-0.611-0.521-1.387-2.637-0.891-6.922c0.261-12.851,2.331-19.126,0.456-19.057c-1.12,0.038-2.367,6.328-2.868,11.552
		c-0.402,4.199,0.139,8.228-0.983,9.349c-2.457,2.45-1.4-7.565-1.108-14.28c0.169-3.816,2.061-6.905-0.784-6.873
		c-1.229,0.014-1.688,4.461-1.949,10.507c0.092,5.776-0.279,10.838-1.811,10.838c-0.797,0-0.363-6.57-0.498-12.203
		c-0.101-4.228,0.981-7.928-0.521-7.928c-2.487,0-1.317,11.413-1.594,16.798c0,0,0.717,5.79-1.092,5.453
		c-1.702-0.317-1.069-5.638-1.008-10.568c0.03-2.451,1.644-7.936-0.813-7.936c-1.888,0-3.569,28.721,2.083,35.908
		c0.245,13.521,0.216,32.461,0.553,35.165C168.431,130.947,174.33,130.732,174.33,130.732z"/>
	<path clip-path="url(#SVGID_2_)" fill="#A09F9F" d="M143.528,119.533c-0.414-11.06-1.061-25.593-1.152-28.298
		c-0.106-2.702,0.293-11.566,2.229-13.718c1.966-2.136,5.837-10.223,5.853-12.12c0.047-3.249-2.473-0.116-2.795,2.819
		c-1.275,3.049-2.028,5.553-3.088,4.822c-1.813-1.251,2.244-25.193-0.552-24.656c-1.598,0.308-0.254,7.167-1.139,13.144
		c-0.214,1.444-0.162,8.021-0.885,8.021c-0.732,0.733-0.76-1.86-0.913-4.634c-0.216-3.656-0.229-8.756-0.199-12.751
		c0.015-3.549,0.462-6.261-0.522-6.261c-3.03,0-0.197,22.437-1.735,22.437c-1.982,0-2.014-7.004-1.844-13.011
		c0.122-4.455,0.568-8.342-0.676-8.342c-4.487,0,0.884,21.292-2.689,21.868c-1.666,0.269,0.238-18.197-1.604-18.197
		c-4.179,0,0.668,21.892,1.098,37.186c0.309,13.519,1.812,29.311,2.12,32.015C138.674,119.703,143.528,119.533,143.528,119.533z"/>
</g>
</svg>
